<svg xmlns="http://www.w3.org/2000/svg" xmlns:xlink="http://www.w3.org/1999/xlink"><symbol fill="none" viewBox="0 0 22 13" id="arrow-right" xmlns="http://www.w3.org/2000/svg"><path fill-rule="evenodd" clip-rule="evenodd" d="M17.879 7.5H.293v-2h17.586l-3.293-3.293L16 .793 21.707 6.5 16 12.207l-1.414-1.414L17.879 7.5z" fill="currentColor"/></symbol><symbol viewBox="0 0 17 10" id="caret" xmlns="http://www.w3.org/2000/svg"><path fill="#FFF" d="M16.301.963l-.67-.67a.999.999 0 00-1.414 0l-5.92 5.92-5.92-5.92a.999.999 0 00-1.414 0l-.67.67a1 1 0 000 1.414L7.55 9.634a.993.993 0 00.747.286.99.99 0 00.747-.286l7.257-7.257a.999.999 0 000-1.414"/></symbol><symbol viewBox="0 0 22 16" id="email" xmlns="http://www.w3.org/2000/svg"><path fill="currentColor" d="M1.641.343c-.323 0-.619.1-.872.265l9.24 8.752c.404.384.929.384 1.333 0L20.564.608a1.582 1.582 0 00-.872-.265H1.641zM.103 1.47C.04 1.65 0 1.84 0 2.043V13.41c0 .346.096.664.265.932l6.53-6.521-6.692-6.35zm21.128 0l-6.675 6.342 6.512 6.53c.17-.268.265-.586.265-.932V2.044c0-.204-.04-.392-.102-.573zm-7.47 7.103l-1.667 1.58a2.065 2.065 0 01-2.838 0L7.59 8.583l-6.462 6.445c.162.055.333.085.513.085h18.051c.18 0 .352-.03.513-.085l-6.444-6.453z"/></symbol><symbol viewBox="0 0 18 18" id="facebook" xmlns="http://www.w3.org/2000/svg"><g fill="none" fill-rule="evenodd"><path fill="currentColor" d="M17 0H1a1 1 0 00-1 1v16a1 1 0 001 1h8.615v-6.96H7.277V8.315h2.338v-2c0-2.325 1.42-3.593 3.5-3.593.7-.002 1.4.034 2.095.108v2.42h-1.435c-1.127 0-1.348.537-1.348 1.325V8.31h2.698l-.35 2.725h-2.348V18H17a1 1 0 001-1V1a1 1 0 00-1-1z"/><path d="M12.428 18v-6.96h2.347l.35-2.725h-2.697V6.58c0-.787.22-1.325 1.347-1.325h1.43v-2.43a19.365 19.365 0 00-2.095-.108c-2.075 0-3.5 1.268-3.5 3.593v2H7.278v2.725h2.337V18h2.813z"/></g></symbol><symbol viewBox="0 0 19 18" id="linkedin" xmlns="http://www.w3.org/2000/svg"><path fill="currentColor" fill-rule="evenodd" d="M17.597 0H1.403C.63 0 0 .578 0 1.29v15.42C0 17.422.629 18 1.404 18h16.193c.775 0 1.403-.578 1.403-1.29V1.29C19 .577 18.372 0 17.597 0zM2.889 15.068h2.87V6.94H2.89v8.127zM4.324 5.83h-.019c-.963 0-1.587-.624-1.587-1.404 0-.797.643-1.404 1.624-1.404.983 0 1.587.607 1.606 1.404 0 .78-.623 1.404-1.624 1.404zm11.785 9.238h-2.87v-4.349c0-1.093-.416-1.838-1.454-1.838-.793 0-1.265.503-1.472.989-.076.172-.095.415-.095.658v4.539H7.347s.039-7.364 0-8.126h2.87v1.152c.38-.553 1.062-1.344 2.586-1.344 1.89 0 3.306 1.16 3.306 3.658v4.66zm-5.91-6.95l.018-.025v.025h-.018z"/></symbol><symbol viewBox="0 0 7 9" id="triangle-left" xmlns="http://www.w3.org/2000/svg"><path fill="currentColor" stroke="currentColor" stroke-linecap="round" stroke-linejoin="round" d="M0 4.5L7 9V0z"/></symbol><symbol viewBox="0 0 22 18" id="twitter" xmlns="http://www.w3.org/2000/svg"><path fill="currentColor" d="M6.919 18C15.22 18 19.76 11.074 19.76 5.068c0-.196 0-.392-.013-.587A9.22 9.22 0 0022 2.128a8.961 8.961 0 01-2.592.715A4.555 4.555 0 0021.392.33a9.008 9.008 0 01-2.866 1.103 4.495 4.495 0 00-5.423-.895 4.56 4.56 0 00-2.27 5.04A12.785 12.785 0 011.532.829 4.567 4.567 0 002.93 6.896a4.457 4.457 0 01-2.05-.568v.057a4.539 4.539 0 003.621 4.455 4.476 4.476 0 01-2.038.078 4.523 4.523 0 004.217 3.157A9.017 9.017 0 010 15.958a12.715 12.715 0 006.919 2.038"/></symbol><symbol viewBox="0 0 35 24" id="youtube" xmlns="http://www.w3.org/2000/svg"><path fill="currentColor" fill-rule="evenodd" d="M33.673 3.747c.72 2.675.72 8.253.72 8.253s0 5.578-.72 8.253a4.302 4.302 0 01-3.04 3.03C27.942 24 17.195 24 17.195 24S6.449 24 3.76 23.284a4.302 4.302 0 01-3.04-3.031C0 17.578 0 12 0 12s0-5.578.72-8.253A4.302 4.302 0 013.76.717C6.449 0 17.196 0 17.196 0s10.748 0 13.436.716a4.302 4.302 0 013.041 3.031zm-20.211 13.05l8.988-5.065-8.988-5.065v10.13z"/></symbol></svg>