<svg xmlns="http://www.w3.org/2000/svg" xmlns:xlink="http://www.w3.org/1999/xlink"><symbol viewBox="0 0 17 10" id="caret" xmlns="http://www.w3.org/2000/svg"><path fill="#FFF" d="M16.301.963l-.67-.67a.999.999 0 00-1.414 0l-5.92 5.92-5.92-5.92a.999.999 0 00-1.414 0l-.67.67a1 1 0 000 1.414L7.55 9.634a.993.993 0 00.747.286.99.99 0 00.747-.286l7.257-7.257a.999.999 0 000-1.414"/></symbol><symbol viewBox="0 0 22 18" id="email" xmlns="http://www.w3.org/2000/svg"><path fill-rule="evenodd" clip-rule="evenodd" d="M22 .5H0v17h22V.5zM2 3.58V15.5h18V3.58l-9 7.2-9-7.2zM18.15 2.5H3.85l7.15 5.72 7.148-5.72z" fill="currentColor"/></symbol><symbol viewBox="0 0 20 20" id="facebook" xmlns="http://www.w3.org/2000/svg"><path d="M10 0C4.477 0 0 4.504 0 10.06c0 5.021 3.656 9.182 8.438 9.94v-7.03h-2.54v-2.91h2.54V7.844c0-2.524 1.493-3.915 3.776-3.915 1.094 0 2.24.196 2.24.196V6.6H13.19c-1.24 0-1.628.777-1.628 1.573v1.886h2.771l-.443 2.91h-2.328v7.03C16.344 19.244 20 15.082 20 10.06 20 4.504 15.523 0 10 0z" fill="currentColor"/></symbol><symbol viewBox="0 0 22 22" id="instagram" xmlns="http://www.w3.org/2000/svg"><path d="M6.444.077c-1.17.055-1.97.242-2.668.516A5.383 5.383 0 001.83 1.866a5.388 5.388 0 00-1.265 1.95c-.271.7-.455 1.5-.506 2.67C.007 7.657-.004 8.034 0 11.021c.006 2.987.02 3.362.076 4.535.056 1.17.242 1.97.517 2.668a5.39 5.39 0 001.272 1.946c.612.61 1.225.985 1.951 1.265.7.27 1.5.455 2.67.506 1.172.052 1.548.063 4.535.058 2.986-.006 3.362-.02 4.535-.075 1.173-.056 1.968-.243 2.668-.516a5.392 5.392 0 001.945-1.273 5.393 5.393 0 001.265-1.95c.271-.7.455-1.5.506-2.67.051-1.175.063-1.55.058-4.536-.006-2.987-.02-3.361-.075-4.534-.056-1.173-.242-1.97-.516-2.67a5.401 5.401 0 00-1.273-1.945 5.368 5.368 0 00-1.95-1.265c-.7-.27-1.5-.455-2.67-.506-1.172-.05-1.549-.063-4.536-.058C7.992.007 7.618.02 6.444.077zm.129 19.885c-1.073-.046-1.655-.224-2.043-.374a3.425 3.425 0 01-1.267-.82 3.388 3.388 0 01-.825-1.263c-.15-.388-.332-.97-.382-2.042-.055-1.16-.066-1.508-.073-4.445-.006-2.936.005-3.284.056-4.444.046-1.071.225-1.654.374-2.042.198-.515.436-.88.82-1.267.384-.386.75-.624 1.264-.825.388-.151.97-.331 2.041-.382 1.16-.055 1.508-.066 4.444-.073 2.937-.006 3.285.005 4.446.056 1.071.047 1.654.224 2.042.374.514.198.88.436 1.267.82.386.385.624.75.825 1.264.151.387.331.968.382 2.041.055 1.16.068 1.508.073 4.444.005 2.936-.005 3.285-.056 4.444-.047 1.073-.224 1.655-.374 2.044a3.41 3.41 0 01-.82 1.266c-.385.386-.75.624-1.264.825-.387.151-.97.332-2.04.383-1.16.054-1.508.066-4.446.072-2.937.006-3.284-.006-4.444-.056M15.54 5.121a1.32 1.32 0 101.318-1.322A1.32 1.32 0 0015.54 5.12zM5.352 11.01a5.648 5.648 0 1011.297-.022 5.648 5.648 0 00-11.297.022zm1.981-.004a3.667 3.667 0 117.334-.016 3.667 3.667 0 01-7.334.017v-.001z" fill="currentColor"/></symbol><symbol viewBox="0 0 19 18" id="linkedin" xmlns="http://www.w3.org/2000/svg"><path d="M18.342 18h-4.076v-6.75c0-1.059-1.21-1.944-2.289-1.944-1.079 0-1.787.885-1.787 1.944V18H6.114V6h4.076v2c.675-1.071 2.401-1.763 3.592-1.763 2.519 0 4.56 2.042 4.56 4.513V18zM4.076 18H0V6h4.076v12zM2.038 0c1.126 0 2.038.895 2.038 2s-.912 2-2.038 2S0 3.105 0 2s.912-2 2.038-2z" fill="currentColor"/></symbol><symbol viewBox="0 0 7 9" id="triangle-left" xmlns="http://www.w3.org/2000/svg"><path fill="currentColor" stroke="currentColor" stroke-linecap="round" stroke-linejoin="round" d="M0 4.5L7 9V0z"/></symbol><symbol viewBox="0 0 24 18" id="twitter" xmlns="http://www.w3.org/2000/svg"><path d="M24 2.13c-.883.362-1.832.606-2.828.716 1.017-.562 1.797-1.453 2.165-2.514a10.37 10.37 0 01-3.127 1.103C19.312.552 18.032 0 16.616 0c-2.719 0-4.924 2.034-4.924 4.544 0 .356.044.703.128 1.036C7.728 5.39 4.1 3.58 1.67.832a4.26 4.26 0 00-.666 2.284c0 1.577.87 2.968 2.19 3.783a5.222 5.222 0 01-2.23-.569v.057c0 2.202 1.697 4.038 3.95 4.456a5.316 5.316 0 01-2.224.078c.627 1.805 2.445 3.119 4.6 3.155-1.685 1.22-3.808 1.946-6.115 1.946-.398 0-.79-.022-1.175-.064A14.795 14.795 0 007.548 18c9.057 0 14.01-6.924 14.01-12.93 0-.196-.006-.392-.015-.587A9.611 9.611 0 0024 2.131z" fill="currentColor"/></symbol><symbol viewBox="0 0 24 17" id="youtube" xmlns="http://www.w3.org/2000/svg"><path fill-rule="evenodd" clip-rule="evenodd" d="M21.39.505a2.98 2.98 0 012.116 2.077C24.02 4.426 24 8.269 24 8.269s0 3.825-.494 5.669a2.98 2.98 0 01-2.116 2.077C19.512 16.5 12 16.5 12 16.5s-7.493 0-9.39-.505a2.98 2.98 0 01-2.116-2.077C0 12.094 0 8.25 0 8.25s0-3.824.494-5.668A3.04 3.04 0 012.61.485C4.488 0 12 0 12 0s7.512 0 9.39.505zM9.608 4.717l6.247 3.533-6.247 3.533V4.717z" fill="currentColor"/></symbol></svg>