<svg xmlns="http://www.w3.org/2000/svg" width="22" height="16" viewBox="0 0 22 16">
    <path fill="currentColor" fill-rule="nonzero" d="M1.641.343c-.323 0-.619.1-.872.265l9.24 8.752c.404.384.929.384 1.333 0L20.564.608a1.582 1.582 0 0 0-.872-.265H1.641zM.103 1.47c-.063.18-.103.37-.103.573V13.41c0 .346.096.664.265.932l6.53-6.521-6.692-6.35zm21.128 0l-6.675 6.342 6.512 6.53c.17-.268.265-.586.265-.932V2.044c0-.204-.04-.392-.102-.573zm-7.47 7.103l-1.667 1.58a2.065 2.065 0 0 1-2.838 0L7.59 8.583l-6.462 6.445c.162.055.333.085.513.085h18.051c.18 0 .352-.03.513-.085l-6.444-6.453z"/>
</svg>
