<svg xmlns="http://www.w3.org/2000/svg" width="18" height="18" viewBox="0 0 18 18">
    <g fill="none" fill-rule="evenodd">
        <path fill="currentColor" d="M17 0H1a1 1 0 0 0-1 1v16a1 1 0 0 0 1 1h8.615v-6.96H7.277V8.315h2.338v-2c0-2.325 1.42-3.593 3.5-3.593.7-.002 1.4.034 2.095.108v2.42h-1.435c-1.127 0-1.348.537-1.348 1.325V8.31h2.698l-.35 2.725h-2.348V18H17a1 1 0 0 0 1-1V1a1 1 0 0 0-1-1z"/>
        <path d="M12.428 18v-6.96h2.347l.35-2.725h-2.697V6.58c0-.787.22-1.325 1.347-1.325h1.43v-2.43a19.365 19.365 0 0 0-2.095-.108c-2.075 0-3.5 1.268-3.5 3.593v2H7.278v2.725h2.337V18h2.813z"/>
    </g>
</svg>
