<svg xmlns="http://www.w3.org/2000/svg" width="19" height="18" viewBox="0 0 19 18">
    <path fill="currentColor" fill-rule="evenodd" d="M17.597 0H1.403C.63 0 0 .578 0 1.29v15.42C0 17.422.629 18 1.404 18h16.193c.775 0 1.403-.578 1.403-1.29V1.29C19 .577 18.372 0 17.597 0zM2.889 15.068h2.87V6.94H2.89v8.127zM4.324 5.83h-.019c-.963 0-1.587-.624-1.587-1.404 0-.797.643-1.404 1.624-1.404.983 0 1.587.607 1.606 1.404 0 .78-.623 1.404-1.624 1.404zm11.785 9.238h-2.87v-4.349c0-1.093-.416-1.838-1.454-1.838-.793 0-1.265.503-1.472.989-.076.172-.095.415-.095.658v4.539H7.347s.039-7.364 0-8.126h2.87v1.152c.38-.553 1.062-1.344 2.586-1.344 1.89 0 3.306 1.16 3.306 3.658v4.66zm-5.91-6.95l.018-.025v.025h-.018z"/>
</svg>
