<svg xmlns="http://www.w3.org/2000/svg" width="35" height="24" viewBox="0 0 35 24">
    <path fill="currentColor" fill-rule="evenodd" d="M33.673 3.747c.72 2.675.72 8.253.72 8.253s0 5.578-.72 8.253a4.302 4.302 0 0 1-3.04 3.03C27.942 24 17.195 24 17.195 24S6.449 24 3.76 23.284a4.302 4.302 0 0 1-3.04-3.031C0 17.578 0 12 0 12s0-5.578.72-8.253A4.302 4.302 0 0 1 3.76.717C6.449 0 17.196 0 17.196 0s10.748 0 13.436.716a4.302 4.302 0 0 1 3.041 3.031zm-20.211 13.05l8.988-5.065-8.988-5.065v10.13z"/>
</svg>
